<?xml version="1.0" standalone="no"?>
<!DOCTYPE svg PUBLIC "-//W3C//DTD SVG 20010904//EN"
 "http://www.w3.org/TR/2001/REC-SVG-20010904/DTD/svg10.dtd">
<svg version="1.0" xmlns="http://www.w3.org/2000/svg"
 width="734.000000pt" height="611.000000pt" viewBox="0 0 734.000000 611.000000"
 preserveAspectRatio="xMidYMid meet">

<g transform="translate(0.000000,611.000000) scale(0.100000,-0.100000)"
fill="#000000" stroke="none">
<path d="M3591 5016 c-55 -20 -109 -80 -127 -143 -30 -102 0 -186 83 -240 l53
-34 0 -124 c0 -121 -1 -125 -22 -129 -13 -3 -147 -7 -298 -10 -180 -3 -301
-10 -350 -19 -132 -26 -280 -77 -409 -143 -280 -142 -497 -355 -646 -636 l-60
-113 -65 -11 c-196 -32 -351 -139 -443 -306 -128 -231 -89 -517 98 -704 100
-101 214 -157 357 -178 l47 -7 47 -87 c87 -161 163 -262 289 -388 170 -168
323 -268 534 -349 157 -59 377 -95 593 -95 l108 0 20 -40 c30 -58 93 -118 155
-146 60 -28 182 -43 263 -33 110 14 219 81 269 167 36 60 39 164 8 227 -73
148 -274 219 -480 170 -74 -18 -169 -90 -210 -162 l-27 -45 -197 5 c-178 4
-206 7 -306 35 -169 46 -271 91 -402 176 -95 61 -135 95 -231 189 -203 199
-326 428 -388 717 -25 118 -26 409 -1 532 98 487 446 882 922 1045 158 55 223
64 512 70 144 3 273 3 288 -1 l26 -7 -3 -120 -3 -121 -51 -18 c-104 -36 -183
-98 -225 -177 l-16 -30 -190 -6 c-157 -6 -208 -11 -288 -32 -301 -78 -526
-288 -625 -582 -70 -210 -66 -393 12 -612 47 -130 102 -215 204 -317 128 -128
242 -193 435 -246 l84 -23 730 0 730 0 105 28 c176 48 290 109 403 216 114
109 192 234 248 404 26 76 32 113 37 214 18 422 -230 777 -634 907 -97 31
-219 46 -387 46 l-128 0 -17 33 c-33 63 -102 120 -192 158 l-85 36 -3 120 c-2
114 -1 121 18 126 35 9 501 -2 590 -14 100 -14 293 -75 391 -125 277 -139 491
-352 631 -629 119 -235 137 -341 139 -839 0 -245 4 -349 12 -360 24 -32 183
13 303 85 117 71 233 228 265 359 17 70 17 209 0 280 -18 75 -86 200 -143 264
-83 94 -231 174 -353 191 -27 4 -56 12 -63 18 -8 6 -29 41 -47 77 -149 295
-408 545 -712 686 -230 107 -428 144 -771 144 -135 0 -231 4 -243 10 -17 10
-19 22 -19 123 0 62 4 117 8 122 4 6 24 21 45 35 91 61 122 174 73 274 -15 30
-41 65 -59 79 -59 45 -147 58 -216 33z m-548 -1890 c92 -39 132 -163 80 -243
-41 -63 -162 -85 -231 -43 -71 43 -92 133 -51 218 35 70 125 101 202 68z
m1379 4 c46 -13 81 -54 98 -114 11 -40 10 -52 -4 -89 -9 -24 -29 -56 -45 -72
-59 -55 -172 -51 -231 10 -29 30 -34 43 -38 93 -6 82 20 128 93 166 35 18 75
20 127 6z m-364 -524 c9 -75 -74 -187 -178 -239 -115 -57 -247 -65 -367 -23
-114 40 -210 140 -228 238 -4 20 -4 42 0 47 4 8 124 10 388 9 l382 -3 3 -29z"/>
</g>
</svg>
