<?xml version="1.0" standalone="no"?>
<!DOCTYPE svg PUBLIC "-//W3C//DTD SVG 20010904//EN"
 "http://www.w3.org/TR/2001/REC-SVG-20010904/DTD/svg10.dtd">
<svg version="1.0" xmlns="http://www.w3.org/2000/svg"
 width="501.000000pt" height="498.000000pt" viewBox="0 0 501.000000 498.000000"
 preserveAspectRatio="xMidYMid meet">

<g transform="translate(0.000000,498.000000) scale(0.100000,-0.100000)"
fill="#000000" stroke="none">
<path d="M2336 4793 c-3 -3 -26 -5 -51 -5 -116 3 -412 -66 -595 -138 -117 -46
-294 -131 -345 -166 -20 -13 -38 -24 -41 -24 -6 0 -138 -90 -173 -118 -13 -11
-21 -24 -17 -30 3 -6 -1 -8 -11 -6 -36 9 -258 -208 -427 -417 -39 -48 -167
-250 -209 -331 -57 -108 -132 -297 -168 -423 -33 -112 -76 -337 -78 -403 0
-24 -3 -48 -6 -53 -8 -12 11 -45 30 -53 25 -9 55 29 55 71 0 98 75 439 121
551 25 62 41 103 43 112 4 18 51 120 55 121 3 0 14 2 24 4 9 2 17 -1 17 -5 0
-5 16 -12 35 -16 19 -3 35 -7 35 -8 1 0 3 -28 6 -61 7 -92 23 -216 33 -260 34
-148 41 -172 67 -232 8 -17 14 -36 14 -42 0 -6 4 -19 9 -29 5 -9 17 -35 26
-57 34 -80 59 -125 68 -125 6 0 7 -3 4 -6 -7 -8 42 -104 53 -104 3 0 13 14 21
32 20 44 46 58 64 35 12 -17 14 -16 33 8 13 16 30 25 47 25 26 0 27 -2 22 -36
l-6 -37 23 22 c29 28 52 27 71 -3 13 -20 14 -29 5 -46 -11 -20 -10 -21 10 -10
16 9 25 8 36 -1 9 -7 14 -8 14 -1 0 6 -4 13 -9 16 -9 6 -30 44 -93 171 -102
202 -138 450 -103 703 8 56 36 145 61 190 13 23 21 42 18 42 -3 0 2 7 10 16 9
8 13 20 10 26 -4 7 -2 8 4 4 7 -4 23 9 39 32 32 44 76 83 148 133 28 19 52 36
55 39 19 19 221 104 286 121 142 35 308 43 464 23 73 -9 75 -13 31 -51 -49
-41 -51 -53 -10 -53 l31 0 -31 -35 c-30 -35 -41 -75 -21 -75 6 0 26 7 45 14
38 16 44 12 20 -14 -9 -10 -17 -30 -18 -46 -3 -40 30 -43 72 -9 34 29 37 25
20 -24 -23 -65 42 -66 76 -1 17 32 35 32 35 -1 0 -10 7 -19 15 -19 17 0 40 40
50 90 10 49 18 56 107 101 235 118 456 159 685 128 255 -34 403 -112 517 -273
182 -254 241 -592 161 -910 -22 -87 -35 -107 -85 -133 -49 -26 -85 -62 -73
-74 4 -4 18 -9 31 -11 l22 -3 -25 -29 c-35 -40 -41 -67 -20 -82 15 -11 23 -10
48 2 28 15 29 15 23 -1 -16 -43 -17 -62 -2 -74 13 -11 22 -10 52 8 l36 21 -4
-32 c-4 -47 30 -50 66 -7 26 30 27 31 33 10 8 -32 29 -25 50 19 63 132 135
325 161 430 48 199 56 285 49 521 l-6 209 37 16 c63 26 72 23 105 -31 158
-265 259 -564 298 -888 6 -50 16 -98 21 -104 14 -17 40 -16 63 1 18 13 18 19
6 117 -20 158 -71 391 -105 479 -8 19 -29 73 -47 120 -107 281 -277 538 -504
765 -71 72 -144 142 -160 155 -17 14 -51 41 -75 61 -189 151 -507 312 -756
384 -113 32 -319 72 -419 81 -82 7 -105 -1 -105 -40 0 -31 19 -46 58 -46 113
0 385 -62 582 -132 140 -50 190 -76 190 -98 0 -29 -14 -33 -129 -37 -131 -5
-262 -19 -361 -39 -139 -29 -406 -129 -451 -170 -14 -12 -21 -12 -58 1 -23 8
-45 14 -49 13 -8 -1 -40 10 -64 23 -24 12 -30 11 -23 -3 4 -7 0 -6 -7 4 -23
27 -200 70 -343 83 -33 3 -77 8 -98 11 -21 3 -43 2 -50 -4 -7 -5 -34 -7 -63
-3 -92 12 -423 -31 -392 -51 9 -5 9 -8 2 -8 -7 0 -21 18 -33 40 l-21 40 29 14
c16 9 31 22 35 31 3 9 10 14 16 10 5 -3 26 5 47 17 21 13 54 30 73 39 63 30
135 63 140 64 16 5 47 18 62 26 10 5 22 9 27 9 5 0 26 8 47 17 22 9 45 16 53
14 8 -1 10 2 5 10 -4 7 -3 10 3 6 6 -4 35 0 64 7 95 24 242 54 299 61 30 4 73
9 95 12 49 5 59 15 51 46 -6 24 -28 41 -40 30z m21 -28 c0 -8 -4 -12 -9 -9 -5
3 -6 10 -3 15 9 13 12 11 12 -6z m-1407 -619 c0 -2 -8 -10 -17 -17 -16 -13
-17 -12 -4 4 13 16 21 21 21 13z"/>
<path d="M3316 3909 c-216 -36 -368 -251 -326 -462 17 -89 47 -145 110 -207
113 -113 257 -148 402 -99 313 105 375 509 106 699 -86 61 -192 86 -292 69z"/>
<path d="M1474 3825 c-117 -25 -209 -93 -262 -192 -109 -205 -30 -450 176
-550 71 -34 84 -37 167 -37 80 0 97 3 157 31 115 54 199 152 226 263 19 79 19
85 11 147 -32 233 -250 388 -475 338z"/>
<path d="M2480 3590 c0 -44 26 -89 55 -96 59 -15 76 57 24 100 -17 14 -41 26
-55 26 -20 0 -24 -5 -24 -30z"/>
<path d="M2200 3571 c-45 -45 -37 -101 15 -101 39 0 56 22 58 75 2 45 0 50
-21 53 -14 2 -33 -7 -52 -27z"/>
<path d="M2350 3580 c-6 -10 -13 -46 -17 -80 -5 -50 -3 -64 12 -80 22 -24 48
-26 70 -3 14 13 16 28 10 76 -3 32 -10 70 -15 83 -12 29 -45 32 -60 4z"/>
<path d="M1567 2582 c-35 -37 -36 -72 -2 -72 14 0 42 7 61 15 31 13 35 18 32
47 -3 29 -7 33 -33 36 -23 2 -37 -4 -58 -26z m53 -26 c0 -2 -8 -10 -17 -17
-16 -13 -17 -12 -4 4 13 16 21 21 21 13z"/>
<path d="M1270 2485 c0 -8 -11 -25 -25 -37 l-26 -22 23 -18 c30 -23 18 -44
-48 -80 -86 -47 -87 -50 -20 -120 44 -46 58 -48 50 -8 -8 36 4 38 39 6 53 -49
87 -36 51 20 -22 33 -10 42 25 21 31 -18 67 -22 75 -9 6 10 -33 72 -45 72 -5
0 -9 6 -9 14 0 11 8 12 34 6 42 -9 60 1 52 28 -5 16 -36 34 -55 31 -5 -1 -21
24 -21 32 0 4 11 10 25 13 14 4 25 10 25 16 0 8 -27 21 -40 19 -3 0 -16 4 -30
9 -57 21 -80 23 -80 7z"/>
<path d="M1565 2428 c-11 -6 -22 -12 -24 -14 -6 -5 28 -36 42 -38 6 -1 18 -5
26 -10 29 -19 92 -19 112 0 22 20 25 47 7 62 -18 13 -139 14 -163 0z"/>
<path d="M1544 2291 c4 -6 3 -11 -3 -11 -6 0 -8 -7 -4 -16 3 -8 12 -13 21 -9
12 4 12 3 3 -9 -9 -11 -9 -16 0 -22 8 -5 10 -3 5 7 -5 9 -3 8 6 -2 22 -26 43
-28 69 -7 13 11 17 16 9 12 -12 -5 -12 -4 -4 6 9 9 8 16 -6 30 -20 20 -107 39
-96 21z m63 -43 c-3 -8 -6 -5 -6 6 -1 11 2 17 5 13 3 -3 4 -12 1 -19z"/>
<path d="M3674 1923 c10 -12 28 -25 39 -29 16 -5 17 -8 6 -15 -11 -7 -11 -9 2
-9 19 0 59 -33 59 -47 0 -6 7 -16 15 -23 8 -7 13 -16 10 -20 -3 -4 2 -13 10
-20 7 -6 11 -18 8 -26 -3 -8 0 -14 6 -14 6 0 11 6 11 13 0 18 -24 67 -32 67
-5 0 -8 5 -8 12 0 15 -80 98 -94 98 -5 0 -19 8 -30 18 -21 17 -21 17 -2 -5z"/>
<path d="M3704 1365 c3 -8 -2 -19 -12 -24 -9 -5 -13 -13 -9 -17 8 -9 36 24 37
44 0 6 -5 12 -11 12 -6 0 -9 -7 -5 -15z"/>
<path d="M3321 1297 c2 -2 11 -8 20 -15 12 -9 16 -9 16 1 0 7 -9 14 -20 14
-11 1 -18 1 -16 0z"/>
<path d="M3645 1290 c-3 -5 -1 -10 4 -10 6 0 11 5 11 10 0 6 -2 10 -4 10 -3 0
-8 -4 -11 -10z"/>
<path d="M3526 1273 c-11 -11 -6 -23 9 -23 8 0 15 4 15 9 0 13 -16 22 -24 14z"/>
<path d="M3327 1264 c7 -3 9 -13 6 -22 -4 -14 -3 -14 5 -2 12 16 7 30 -11 29
-9 0 -9 -2 0 -5z"/>
</g>
</svg>
