<?xml version="1.0" standalone="no"?>
<!DOCTYPE svg PUBLIC "-//W3C//DTD SVG 20010904//EN"
 "http://www.w3.org/TR/2001/REC-SVG-20010904/DTD/svg10.dtd">
<svg version="1.0" xmlns="http://www.w3.org/2000/svg"
 width="496.000000pt" height="503.000000pt" viewBox="0 0 496.000000 503.000000"
 preserveAspectRatio="xMidYMid meet">
<metadata>
Created by potrace 1.16, written by Peter Selinger 2001-2019
</metadata>
<g transform="translate(0.000000,503.000000) scale(0.100000,-0.100000)"
fill="#000000" stroke="none">
<path d="M2274 4897 c-22 -18 -56 -43 -74 -57 -18 -14 -38 -30 -44 -35 -6 -6
-27 -22 -46 -35 -19 -14 -44 -32 -55 -42 -34 -28 -190 -152 -219 -173 -15 -11
-42 -32 -59 -47 -18 -15 -35 -28 -39 -28 -5 0 -8 -427 -8 -950 l0 -950 730 0
730 0 1 38 c0 20 0 447 0 947 l0 910 -34 30 c-18 17 -66 55 -106 85 -40 30
-110 84 -156 120 -209 163 -285 220 -294 220 -8 0 -11 -291 -11 -960 l0 -960
-125 0 -125 0 0 960 c0 762 -3 960 -12 959 -7 0 -31 -14 -54 -32z"/>
<path d="M1345 4175 c-136 -108 -282 -220 -470 -365 -304 -234 -512 -452 -627
-660 -14 -25 -34 -61 -45 -80 -10 -19 -25 -51 -33 -70 -14 -38 -28 -73 -54
-135 -21 -50 -66 -230 -66 -261 0 -23 4 -24 59 -24 58 0 62 2 123 53 35 29 81
66 103 82 22 16 42 31 45 34 3 4 24 20 46 38 57 44 64 33 64 -99 l0 -108 294
0 294 0 6 23 c3 12 6 176 6 364 l0 342 113 80 c102 73 233 156 247 156 28 1
30 22 30 371 0 195 -3 354 -7 353 -5 0 -62 -43 -128 -94z"/>
<path d="M3447 3427 l2 -842 296 -3 295 -2 0 252 0 253 39 -55 c73 -100 140
-244 176 -373 12 -43 21 -60 38 -65 12 -4 149 -6 305 -4 l282 3 0 29 c0 30
-24 144 -39 183 -5 12 -17 47 -26 77 -38 115 -171 342 -265 450 -113 130 -364
378 -456 450 -10 8 -46 37 -79 63 -33 27 -67 54 -75 60 -73 59 -250 195 -315
243 -44 32 -82 61 -85 64 -13 15 -78 60 -86 60 -5 0 -8 -344 -7 -843z"/>
<path d="M83 2393 c-40 -5 -41 -14 -13 -133 53 -222 162 -438 332 -660 41 -53
266 -280 279 -280 3 0 19 -12 35 -26 29 -25 234 -187 429 -338 55 -43 107 -83
115 -89 88 -71 204 -157 211 -157 5 0 9 148 9 349 l0 350 -29 20 c-16 12 -31
21 -34 21 -7 0 -190 112 -197 120 -3 3 -33 28 -68 54 l-62 49 0 358 c0 335 -1
359 -17 360 -122 4 -464 5 -515 1 l-68 -4 0 -107 c0 -135 -6 -145 -58 -100
-50 43 -69 59 -112 89 -19 13 -45 34 -58 46 -62 60 -117 84 -179 77z"/>
<path d="M1748 2392 c-17 -3 -18 -56 -18 -944 l0 -940 33 -30 c17 -17 57 -49
87 -71 30 -22 57 -43 60 -47 3 -3 34 -28 70 -55 36 -28 72 -55 80 -62 154
-122 259 -203 264 -203 3 0 6 428 6 950 l0 950 124 0 124 0 7 -132 c3 -73 5
-501 3 -951 -2 -449 -1 -817 2 -817 3 0 24 15 47 33 158 120 426 329 433 337
3 3 28 22 56 44 l51 38 6 126 c4 70 7 495 7 944 0 642 -3 819 -12 825 -13 8
-1395 13 -1430 5z"/>
<path d="M3440 1553 c0 -464 3 -843 6 -843 9 0 195 141 215 162 9 10 21 18 26
18 6 0 30 17 54 38 24 20 87 70 139 109 52 40 110 85 129 100 18 16 63 52 100
82 94 77 205 176 280 251 62 62 251 292 251 305 0 4 13 25 28 48 16 23 47 80
69 127 35 75 50 110 84 198 5 13 9 33 9 45 0 13 4 27 9 33 12 14 34 131 28
149 -6 13 -43 15 -294 15 -158 0 -293 -4 -300 -8 -7 -4 -19 -35 -28 -69 -28
-107 -72 -204 -158 -345 -19 -32 -37 -55 -41 -51 -3 3 -6 109 -6 234 0 168 -3
230 -12 235 -7 4 -142 8 -300 9 l-288 0 0 -842z"/>
</g>
</svg>
